<svg xmlns="http://www.w3.org/2000/svg" xmlns:xlink="http://www.w3.org/1999/xlink" width="1920" zoomAndPan="magnify" viewBox="0 0 1440 809.999993" height="1080" preserveAspectRatio="xMidYMid meet" version="1.0"><defs><clipPath id="732bf9d43c"><path d="M 0 764.640625 L 1440 764.640625 L 1440 810 L 0 810 Z M 0 764.640625 " clip-rule="nonzero"/></clipPath><clipPath id="8fb383e2d3"><path d="M 207.753906 782.671875 L 628.117188 782.671875 L 628.117188 789.820312 L 207.753906 789.820312 Z M 207.753906 782.671875 " clip-rule="nonzero"/></clipPath><clipPath id="1938e912b6"><path d="M 617.804688 783.179688 C 616.601562 783.277344 615.039062 783.507812 613.933594 783.277344 C 609.28125 783.410156 604.632812 782.335938 599.882812 782.789062 C 600.144531 782.953125 599.882812 783.214844 599.625 783.3125 L 599.558594 783.148438 L 599.199219 783.472656 C 598.84375 783.507812 599.003906 783.082031 599.296875 783.019531 C 597.410156 783.019531 595.71875 783.179688 593.867188 783.082031 C 593.738281 783.605469 592.921875 783.117188 592.859375 783.636719 C 592.761719 783.539062 592.859375 783.507812 592.890625 783.410156 C 592.53125 783.472656 592.273438 783.539062 592.046875 783.570312 C 589.726562 783.636719 588.5 783.507812 584.957031 783.050781 C 564.09375 782.628906 544.054688 782.984375 523.601562 782.824219 C 502.878906 782.921875 482.429688 783.375 461.160156 783.507812 C 457.886719 784.320312 453.386719 783.929688 449.570312 784.644531 L 449.84375 784.382812 C 446.570312 784.742188 445.753906 784.320312 441.527344 784.027344 C 441.527344 784.320312 439.890625 784.089844 440.570312 784.578125 C 439.070312 784.96875 437.980469 783.898438 435.9375 784.125 C 435.800781 783.960938 435.9375 784.417969 435.527344 784.253906 C 430.210938 784.839844 436.617188 783.996094 429.664062 783.539062 C 420.121094 783.703125 410.441406 784.1875 401.304688 783.898438 C 401.851562 783.863281 402.125 784.253906 401.167969 784.253906 C 400.214844 783.472656 398.035156 784.449219 396.398438 784.15625 C 396.535156 783.996094 397.351562 783.960938 397.761719 783.863281 C 393.671875 783.539062 390.125 784.027344 386.308594 783.703125 C 382.628906 784.027344 378.128906 783.34375 375.675781 783.734375 C 376.21875 783.441406 374.039062 783.507812 373.21875 783.34375 C 370.492188 784.253906 365.859375 783.019531 362.585938 783.636719 L 362.722656 783.472656 C 352.496094 783.539062 341.453125 783.34375 330.953125 783.765625 C 324.957031 783.863281 318.273438 783.050781 311.730469 783.441406 C 310.503906 783.570312 311.457031 783.765625 310.503906 783.832031 C 308.867188 783.800781 310.503906 783.539062 309.820312 783.441406 C 306.550781 783.800781 302.324219 783.375 298.234375 783.375 C 297.6875 783.507812 296.597656 783.570312 297.007812 783.765625 C 292.507812 783.148438 286.371094 783.996094 281.734375 783.507812 C 283.371094 784.285156 279.007812 783.929688 277.375 784.125 C 276.417969 784.089844 276.417969 783.898438 276.691406 783.734375 C 273.28125 783.832031 271.511719 783.863281 267.285156 783.636719 C 265.375 783.734375 264.828125 784.15625 262.511719 784.027344 C 261.148438 783.472656 257.742188 783.996094 255.558594 783.800781 C 256.105469 784.253906 253.242188 784.644531 251.058594 784.449219 L 251.742188 783.800781 C 250.921875 783.832031 250.105469 783.863281 249.152344 783.898438 C 247.492188 784.058594 245.378906 783.570312 243.621094 784.285156 L 243.460938 783.996094 C 241.410156 784.449219 239.394531 783.960938 237.410156 784.710938 C 236.890625 784.515625 236.011719 784.382812 235.492188 784.382812 C 234.777344 784.710938 234.515625 784.675781 234.027344 785.199219 C 233.765625 785.230469 233.605469 784.9375 233.472656 784.773438 C 232.5625 784.675781 231.71875 784.125 230.96875 784.742188 L 230.9375 784.417969 C 230.222656 784.742188 229.179688 785.164062 228.367188 784.773438 C 228.140625 785.066406 227.328125 785.199219 227.683594 785.554688 C 227.359375 785.621094 227.492188 785.003906 227.164062 785.359375 L 227.457031 784.871094 C 225.636719 784.742188 224.109375 785.003906 222.351562 785.261719 C 221.894531 784.710938 220.726562 785.359375 219.71875 785.035156 C 219.132812 785.359375 218.125 784.90625 217.667969 785.621094 L 217.636719 785.296875 C 216.855469 785.261719 215.8125 785.261719 214.773438 785.101562 C 214.1875 785.003906 214.1875 785.492188 213.699219 785.652344 L 213.667969 785.328125 C 213.148438 785.523438 213.015625 786.042969 212.820312 786.367188 C 212.433594 786.140625 212.367188 786.367188 211.976562 786.140625 C 212.367188 785.945312 212.691406 785.585938 212.953125 785.164062 C 212.335938 785.035156 211.683594 785.847656 211.292969 785.359375 C 210.773438 785.230469 210.382812 785.359375 210.316406 785.75 L 210.316406 785.816406 L 210.316406 785.75 C 210.285156 785.621094 209.992188 785.523438 210.253906 785.359375 C 209.863281 785.359375 209.601562 785.394531 209.375 785.585938 C 209.441406 785.585938 209.570312 785.652344 209.636719 785.621094 C 209.441406 785.945312 209.050781 785.945312 209.148438 786.433594 C 209.34375 786.304688 209.375 786.238281 209.601562 786.269531 C 209.503906 786.628906 208.820312 786.726562 208.660156 786.402344 C 208.464844 786.042969 209.113281 785.816406 208.789062 785.621094 L 207.78125 786.402344 C 208.007812 786.304688 208.269531 786.5 208.171875 786.792969 L 208.59375 786.5625 L 208.5625 786.921875 C 209.277344 786.792969 209.796875 787.148438 210.546875 786.855469 L 210.253906 786.5 C 210.675781 786.464844 211.132812 785.976562 211.554688 786.402344 C 211.359375 786.53125 211.488281 786.726562 211.488281 786.921875 C 211.585938 786.855469 211.714844 786.726562 211.8125 786.757812 L 211.617188 787.375 C 211.8125 786.5625 212.820312 787.082031 213.015625 786.953125 L 212.953125 787.082031 C 213.601562 787.34375 212.820312 786.726562 213.277344 786.726562 C 213.667969 786.824219 213.40625 787.410156 213.765625 787.667969 C 214.414062 787.636719 215.554688 787.179688 216.300781 787.667969 C 216.886719 787.570312 217.539062 787.34375 218.089844 787.050781 C 218.609375 787.050781 218.058594 787.703125 218.609375 787.410156 C 218.546875 787.636719 218.644531 787.863281 218.675781 788.058594 C 218.742188 787.832031 219.652344 788.09375 219.230469 787.539062 C 220.011719 787.667969 220.855469 787.703125 221.667969 787.605469 C 221.410156 787.636719 221.34375 788.027344 221.570312 788.222656 C 221.960938 787.832031 222.613281 787.605469 223.292969 787.734375 C 223.292969 787.3125 223.066406 787.34375 223.132812 786.921875 C 223.230469 786.855469 223.390625 786.660156 223.554688 786.695312 C 223.652344 787.117188 223.621094 787.765625 224.238281 787.765625 C 224.074219 788.417969 223.195312 787.667969 223.488281 788.351562 C 223.230469 788.871094 222.125 788.90625 221.863281 788.578125 C 221.3125 789.132812 222.285156 788.644531 222.1875 789.199219 C 222.675781 789.164062 222.90625 788.871094 223.652344 788.773438 C 223.652344 788.480469 223.390625 788.449219 223.75 788.222656 C 224.433594 787.636719 224.59375 788.644531 224.757812 788.675781 C 224.660156 788.742188 224.53125 788.773438 224.433594 788.839844 C 224.886719 789.035156 225.050781 788.644531 225.507812 788.675781 C 225.636719 789.425781 224.757812 788.773438 224.5625 789.230469 L 224.921875 789.785156 C 225.636719 789.847656 225.117188 789.164062 225.863281 789.359375 L 225.765625 789.621094 L 226.222656 789.457031 C 226.222656 789.164062 226.125 788.742188 225.734375 788.808594 C 225.996094 788.09375 226.089844 788.710938 226.742188 788.546875 C 226.9375 788.125 226.480469 788.578125 226.449219 788.191406 C 226.382812 787.800781 226.839844 787.800781 227.132812 787.734375 C 227.652344 787.734375 227.394531 788.191406 227.621094 788.449219 C 227.523438 788.515625 227.101562 788.578125 227.164062 788.351562 C 226.515625 788.773438 227.457031 789.199219 227.003906 789.523438 C 227.492188 789.75 227.492188 789.296875 227.71875 789.132812 C 227.585938 789.066406 227.816406 788.710938 227.683594 788.578125 C 228.53125 787.441406 228.238281 789.394531 229.050781 789.199219 C 228.890625 788.480469 230.15625 788.191406 229.539062 787.410156 C 229.734375 787.277344 229.996094 787.117188 230.191406 787.179688 C 229.960938 787.667969 230.546875 787.570312 230.15625 788.027344 L 230.449219 788.027344 L 229.996094 788.613281 C 230.320312 788.9375 230.871094 789.296875 231.066406 789.523438 C 231.492188 789.296875 230.9375 789.066406 231.425781 788.9375 C 231.261719 789.199219 231.554688 789.394531 231.785156 789.394531 C 231.328125 789.199219 231.785156 788.710938 232.042969 788.578125 C 232.5 788.578125 232.855469 789.035156 232.792969 789.132812 L 232.433594 789.492188 C 232.660156 789.296875 232.53125 789.75 232.824219 789.589844 C 232.921875 789.328125 233.117188 788.90625 233.246094 788.546875 C 233.539062 788.417969 233.734375 788.773438 233.832031 788.710938 L 233.378906 789.003906 C 233.960938 788.90625 233.507812 789.75 234.09375 789.554688 L 234.253906 789.164062 C 234.386719 789.230469 234.417969 789.394531 234.320312 789.554688 C 234.417969 789.296875 234.742188 789.328125 234.90625 789.230469 L 234.9375 789.492188 C 235.199219 789.328125 235.523438 788.773438 235.816406 789.261719 C 235.589844 788.644531 235.523438 789.261719 235.066406 788.96875 C 234.808594 788.515625 235.492188 788.546875 235.589844 788.480469 C 235.554688 789.132812 236.238281 788.546875 236.53125 788.546875 C 236.695312 788.773438 236.855469 788.871094 236.988281 789.035156 L 237.117188 788.613281 C 237.246094 789.457031 237.734375 788.417969 238.058594 788.675781 C 237.898438 788.9375 237.898438 789.261719 238.15625 789.394531 C 237.832031 788.773438 238.679688 788.613281 238.582031 788.191406 C 239.199219 788.417969 238.449219 788.96875 238.613281 789.425781 C 238.90625 788.9375 239.296875 789.75 239.492188 789.132812 C 239.035156 788.9375 239.554688 788.742188 239.652344 788.449219 C 240.207031 788.480469 239.554688 788.710938 239.945312 788.9375 C 240.175781 788.839844 240.5 788.386719 240.109375 788.191406 C 240.433594 788.320312 240.792969 787.734375 241.183594 788.125 C 241.34375 788.515625 240.5 788.289062 240.695312 788.578125 C 241.476562 788.613281 241.085938 787.636719 241.800781 787.507812 C 241.476562 787.3125 241.800781 786.597656 242.125 786.367188 C 242.9375 786.53125 241.769531 786.597656 242.09375 787.082031 L 242.417969 787.019531 C 242.875 787.703125 241.476562 788.125 241.898438 788.675781 L 242.257812 788.449219 C 242.191406 788.644531 242.0625 789.003906 242.222656 789.164062 C 242.320312 788.675781 243.035156 789.035156 243.101562 788.9375 C 243.167969 788.546875 242.808594 789.066406 242.875 788.742188 C 243.230469 788.644531 243.394531 787.960938 243.980469 788.222656 C 243.65625 788.515625 244.109375 788.773438 243.980469 789.003906 C 244.273438 789.164062 244.078125 788.515625 244.46875 788.742188 L 244.433594 788.96875 C 245.867188 789.035156 247.65625 789.003906 248.921875 788.09375 C 248.957031 788.058594 248.988281 788.027344 249.019531 788.027344 C 249.558594 788.417969 251.605469 788.449219 254.742188 788.742188 C 253.378906 788.613281 254.742188 788.320312 255.421875 788.289062 L 256.921875 788.742188 C 258.695312 789.003906 261.148438 788.578125 262.785156 788.320312 C 263.058594 788.417969 263.195312 788.546875 263.195312 788.644531 C 264.828125 788.9375 264.828125 788.386719 265.511719 788.289062 L 266.601562 788.613281 L 266.875 788.289062 C 268.511719 788.09375 270.691406 788.191406 270.421875 788.710938 C 271.101562 788.613281 271.648438 788.515625 270.828125 788.351562 C 272.464844 788.644531 276.828125 788.644531 279.691406 788.480469 C 278.328125 788.351562 278.464844 788.191406 278.328125 787.863281 C 279.828125 787.3125 279.964844 787.960938 281.191406 787.636719 C 281.191406 787.832031 282.554688 788.058594 281.191406 788.191406 C 285.007812 788.90625 290.460938 788.320312 295.371094 788.480469 C 296.324219 788.386719 296.050781 788.320312 296.460938 788.15625 C 299.597656 788.710938 303.277344 788.125 306.550781 788.386719 C 305.867188 788.15625 306.824219 787.507812 308.730469 787.472656 C 310.777344 787.019531 309.550781 788.125 311.320312 788.386719 C 312.277344 788.15625 313.914062 788.125 314.59375 788.15625 L 314.59375 788.222656 C 315.683594 787.960938 317.457031 787.832031 318.820312 788.058594 L 318.546875 788.09375 C 319.636719 788.125 320.867188 788.417969 321.957031 788.386719 C 322.5 787.960938 325.226562 788.222656 325.910156 787.832031 C 326.046875 787.863281 325.910156 787.898438 326.183594 787.996094 L 326.320312 787.636719 L 328.5 787.832031 C 327.957031 787.960938 327.957031 788.125 327.273438 788.222656 C 329.726562 788.480469 328.089844 787.898438 329.320312 787.703125 C 330.953125 787.441406 330.953125 787.800781 331.636719 787.960938 C 330.953125 788.15625 330.410156 787.863281 330 787.929688 C 329.046875 788.222656 330.953125 788.058594 331.089844 788.253906 C 331.5 788.253906 331.636719 787.832031 332.863281 787.898438 C 333.953125 787.929688 336.410156 787.832031 336.136719 788.222656 C 337.089844 788.027344 338.042969 788.058594 338.726562 787.863281 C 337.90625 787.800781 336.273438 787.703125 336.136719 787.441406 C 336.953125 787.375 338.453125 787.277344 338.726562 787.441406 L 338.042969 787.539062 C 338.726562 787.441406 340.90625 787.570312 339.816406 787.179688 L 341.453125 787.703125 C 342 787.410156 343.632812 787.410156 344.996094 787.34375 C 344.996094 787.734375 344.042969 788.191406 346.496094 788.289062 L 348.679688 787.863281 C 349.769531 787.832031 350.042969 787.929688 349.90625 788.15625 C 353.722656 788.386719 353.859375 787.050781 356.859375 787.410156 C 355.632812 787.898438 356.585938 787.929688 357.949219 788.058594 C 357.949219 787.996094 358.085938 787.832031 358.632812 787.800781 C 358.222656 787.570312 357.8125 788.125 356.722656 787.800781 C 356.449219 787.507812 357.949219 787.605469 358.632812 787.507812 C 361.359375 788.546875 367.628906 787.765625 371.992188 788.253906 C 371.71875 787.667969 373.902344 788.09375 374.855469 787.863281 C 374.582031 788.480469 377.308594 787.765625 378.539062 788.125 L 377.992188 787.636719 C 380.71875 787.996094 382.355469 786.726562 383.992188 787.441406 C 385.492188 787.636719 383.445312 787.863281 382.898438 787.960938 C 384.945312 788.613281 388.488281 787.441406 390.125 788.15625 C 390.261719 787.929688 389.71875 787.539062 391.488281 787.3125 C 392.988281 787.570312 395.851562 787.898438 395.578125 787.996094 C 396.808594 787.863281 397.078125 787.703125 398.441406 787.898438 C 398.304688 788.058594 397.761719 788.058594 397.351562 788.15625 C 399.398438 788.320312 401.167969 788.058594 402.941406 787.832031 C 404.03125 788.289062 407.714844 788.058594 410.167969 788.320312 C 411.53125 787.765625 413.984375 788.546875 414.257812 787.832031 C 414.257812 787.898438 414.53125 787.996094 414.667969 788.058594 C 415.621094 787.863281 416.304688 787.375 417.394531 787.34375 L 416.984375 787.832031 C 416.710938 788.386719 419.710938 788.027344 420.394531 788.191406 C 419.710938 787.863281 421.757812 788.222656 421.894531 787.898438 L 423.257812 787.734375 C 425.4375 787.605469 423.53125 787.507812 426.121094 787.441406 C 427.621094 787.410156 426.664062 787.996094 426.121094 787.929688 C 427.347656 788.191406 428.710938 788.027344 429.9375 787.929688 C 429.390625 787.929688 429.253906 787.898438 429.800781 787.800781 C 429.800781 787.863281 429.9375 787.898438 430.074219 787.929688 C 430.617188 787.898438 431.027344 787.863281 431.574219 787.863281 L 431.574219 787.898438 C 432.253906 787.863281 432.9375 787.832031 433.480469 787.800781 C 433.890625 787.765625 434.164062 787.734375 434.4375 787.734375 C 435.253906 787.703125 435.527344 787.703125 434.710938 787.800781 C 434.574219 787.765625 434.574219 787.734375 434.4375 787.734375 C 434.164062 787.734375 433.890625 787.765625 433.480469 787.800781 C 432.9375 787.863281 432.390625 787.996094 431.984375 788.027344 C 432.390625 788.027344 432.800781 788.058594 433.074219 788.125 L 432.664062 788.480469 C 433.617188 788.515625 436.074219 788.09375 436.074219 787.929688 C 439.617188 788.253906 445.617188 787.996094 448.070312 787.765625 C 448.207031 787.734375 448.480469 787.703125 448.753906 787.703125 C 448.617188 787.734375 448.34375 787.734375 448.070312 787.765625 C 447.660156 787.863281 447.523438 787.960938 448.070312 787.832031 C 449.296875 787.765625 450.660156 787.441406 450.796875 787.667969 C 452.023438 787.507812 451.886719 787.929688 453.796875 787.960938 C 453.796875 788.027344 453.933594 787.765625 453.796875 787.667969 C 453.660156 787.667969 453.660156 787.636719 453.523438 787.636719 C 453.660156 787.636719 453.796875 787.636719 453.796875 787.667969 C 456.933594 788.15625 460.75 787.3125 464.429688 787.636719 L 464.566406 787.636719 L 464.429688 787.636719 C 464.160156 787.667969 463.75 787.863281 463.339844 787.996094 C 466.203125 787.800781 468.929688 787.667969 471.519531 787.214844 C 471.25 787.375 471.382812 787.539062 470.703125 787.636719 C 472.746094 787.636719 475.066406 787.539062 476.019531 787.179688 C 474.65625 787.019531 475.882812 787.375 475.066406 787.375 C 473.566406 787.050781 476.15625 786.695312 477.519531 786.792969 L 477.519531 786.855469 C 479.566406 786.855469 479.566406 786.628906 481.609375 786.628906 C 482.835938 786.824219 480.519531 786.726562 481.066406 786.953125 C 481.472656 787.539062 485.5625 787.34375 485.972656 787.410156 C 486.519531 787.277344 487.199219 787.179688 487.0625 787.019531 C 488.5625 786.855469 487.746094 787.375 488.835938 787.34375 L 493.0625 786.238281 C 493.0625 786.207031 493.199219 786.171875 493.335938 786.171875 L 493.0625 786.238281 C 492.925781 786.402344 494.425781 786.726562 493.199219 786.953125 C 496.472656 786.890625 498.242188 786.171875 500.289062 785.816406 C 501.242188 785.914062 504.378906 785.683594 505.46875 785.652344 C 506.015625 785.976562 504.515625 785.621094 504.242188 785.878906 L 505.878906 786.238281 C 503.695312 786.304688 506.152344 786.792969 504.925781 787.019531 C 506.695312 786.824219 510.785156 787.050781 513.378906 787.148438 C 511.605469 786.464844 516.921875 786.824219 516.785156 786.207031 C 519.785156 786.109375 518.285156 786.695312 519.511719 786.824219 C 522.648438 786.597656 525.648438 786.757812 528.511719 786.695312 C 528.511719 786.695312 528.511719 786.757812 528.375 786.824219 C 530.964844 786.628906 535.328125 786.824219 537.917969 786.269531 C 537.78125 786.402344 538.054688 786.5 537.371094 786.597656 C 540.234375 786.824219 537.917969 785.816406 541.191406 786.171875 L 540.371094 786.464844 C 542.417969 786.171875 544.328125 786.726562 546.644531 786.269531 C 546.78125 786.433594 546.234375 786.5 545.824219 786.5625 C 548.007812 786.433594 550.324219 786.5 552.097656 786.074219 C 552.371094 786.269531 552.097656 786.433594 551.28125 786.5625 C 553.324219 786.792969 553.597656 786.011719 555.507812 786.238281 C 556.050781 786.269531 557.140625 786.53125 556.734375 786.53125 C 557.6875 786.269531 560.550781 786.269531 561.640625 786.171875 C 561.914062 786.367188 562.730469 786.433594 563.824219 786.628906 C 573.09375 786.628906 582.636719 786.695312 591.910156 786.367188 C 592.304688 786.335938 592.628906 786.269531 592.921875 786.207031 C 593.347656 786.824219 592.339844 786.597656 592.597656 786.988281 C 592.566406 786.464844 593.019531 786.824219 593.769531 786.660156 L 593.800781 786.726562 C 594.125 786.628906 594.320312 786.953125 594.648438 786.792969 L 594.648438 786.660156 C 595.003906 786.335938 595.460938 787.34375 595.65625 786.660156 L 595.949219 787.019531 C 596.304688 786.433594 596.535156 787.214844 596.988281 786.695312 L 596.921875 786.792969 C 597.542969 787.050781 598.191406 786.140625 598.417969 786.628906 C 598.941406 786.53125 599.527344 786.433594 599.625 785.945312 C 599.753906 786.109375 599.65625 786.402344 599.589844 786.5625 C 601.542969 786.335938 603.6875 786.433594 605.414062 785.816406 C 605.511719 785.914062 605.378906 785.976562 605.347656 786.109375 C 606.421875 785.554688 607.558594 786.695312 608.339844 785.652344 L 608.632812 785.230469 C 608.890625 785.394531 608.859375 785.71875 609.054688 785.847656 C 609.25 785.554688 610.03125 785.78125 610.160156 785.394531 C 610.289062 785.554688 610.128906 785.621094 610.128906 785.75 C 610.617188 785.847656 611.203125 785.199219 611.65625 785.328125 L 611.496094 785.523438 C 613.964844 786.269531 617.121094 786.855469 619.167969 785.878906 C 619.722656 785.71875 619.429688 786.433594 619.65625 786.402344 C 621.738281 785.621094 624.242188 786.855469 626.164062 785.621094 C 627.660156 785.296875 628.113281 783.929688 628.113281 783.929688 C 624.570312 784.480469 621.382812 783.898438 617.804688 783.179688 Z M 617.804688 783.179688 " clip-rule="nonzero"/></clipPath><clipPath id="fdf66271cc"><path d="M 813.226562 782.671875 L 1233.589844 782.671875 L 1233.589844 789.820312 L 813.226562 789.820312 Z M 813.226562 782.671875 " clip-rule="nonzero"/></clipPath><clipPath id="d696b62a3f"><path d="M 1223.273438 783.179688 C 1222.070312 783.277344 1220.511719 783.507812 1219.40625 783.277344 C 1214.753906 783.410156 1210.101562 782.335938 1205.355469 782.789062 C 1205.613281 782.953125 1205.355469 783.214844 1205.09375 783.3125 L 1205.027344 783.148438 L 1204.671875 783.472656 C 1204.3125 783.507812 1204.476562 783.082031 1204.769531 783.019531 C 1202.882812 783.019531 1201.191406 783.179688 1199.335938 783.082031 C 1199.207031 783.605469 1198.394531 783.117188 1198.328125 783.636719 C 1198.230469 783.539062 1198.328125 783.507812 1198.363281 783.410156 C 1198.003906 783.472656 1197.742188 783.539062 1197.515625 783.570312 C 1195.199219 783.636719 1193.972656 783.507812 1190.425781 783.050781 C 1169.566406 782.628906 1149.523438 782.984375 1129.074219 782.824219 C 1108.351562 782.921875 1087.898438 783.375 1066.628906 783.507812 C 1063.359375 784.320312 1058.859375 783.929688 1055.042969 784.644531 L 1055.3125 784.382812 C 1052.042969 784.742188 1051.222656 784.320312 1046.996094 784.027344 C 1046.996094 784.320312 1045.363281 784.089844 1046.042969 784.578125 C 1044.542969 784.96875 1043.453125 783.898438 1041.40625 784.125 C 1041.269531 783.960938 1041.40625 784.417969 1041 784.253906 C 1035.679688 784.839844 1042.089844 783.996094 1035.136719 783.539062 C 1025.59375 783.703125 1015.910156 784.1875 1006.777344 783.898438 C 1007.324219 783.863281 1007.59375 784.253906 1006.640625 784.253906 C 1005.6875 783.472656 1003.503906 784.449219 1001.867188 784.15625 C 1002.003906 783.996094 1002.824219 783.960938 1003.230469 783.863281 C 999.140625 783.539062 995.597656 784.027344 991.78125 783.703125 C 988.097656 784.027344 983.597656 783.34375 981.144531 783.734375 C 981.691406 783.441406 979.507812 783.507812 978.691406 783.34375 C 975.964844 784.253906 971.328125 783.019531 968.058594 783.636719 L 968.191406 783.472656 C 957.96875 783.539062 946.925781 783.34375 936.425781 783.765625 C 930.425781 783.863281 923.746094 783.050781 917.203125 783.441406 C 915.976562 783.570312 916.929688 783.765625 915.976562 783.832031 C 914.339844 783.800781 915.976562 783.539062 915.292969 783.441406 C 912.019531 783.800781 907.792969 783.375 903.703125 783.375 C 903.160156 783.507812 902.066406 783.570312 902.476562 783.765625 C 897.976562 783.148438 891.84375 783.996094 887.207031 783.507812 C 888.84375 784.285156 884.480469 783.929688 882.84375 784.125 C 881.890625 784.089844 881.890625 783.898438 882.164062 783.734375 C 878.753906 783.832031 876.980469 783.863281 872.753906 783.636719 C 870.847656 783.734375 870.300781 784.15625 867.984375 784.027344 C 866.621094 783.472656 863.210938 783.996094 861.03125 783.800781 C 861.574219 784.253906 858.710938 784.644531 856.53125 784.449219 L 857.210938 783.800781 C 856.394531 783.832031 855.578125 783.863281 854.621094 783.898438 C 852.964844 784.058594 850.847656 783.570312 849.09375 784.285156 L 848.929688 783.996094 C 846.882812 784.449219 844.863281 783.960938 842.882812 784.710938 C 842.359375 784.515625 841.484375 784.382812 840.960938 784.382812 C 840.246094 784.710938 839.988281 784.675781 839.5 785.199219 C 839.238281 785.230469 839.074219 784.9375 838.945312 784.773438 C 838.035156 784.675781 837.191406 784.125 836.441406 784.742188 L 836.410156 784.417969 C 835.695312 784.742188 834.652344 785.164062 833.839844 784.773438 C 833.613281 785.066406 832.796875 785.199219 833.15625 785.554688 C 832.832031 785.621094 832.960938 785.003906 832.636719 785.359375 L 832.929688 784.871094 C 831.109375 784.742188 829.578125 785.003906 827.824219 785.261719 C 827.367188 784.710938 826.195312 785.359375 825.1875 785.035156 C 824.601562 785.359375 823.59375 784.90625 823.140625 785.621094 L 823.105469 785.296875 C 822.328125 785.261719 821.285156 785.261719 820.246094 785.101562 C 819.660156 785.003906 819.660156 785.492188 819.171875 785.652344 L 819.140625 785.328125 C 818.617188 785.523438 818.488281 786.042969 818.292969 786.367188 C 817.902344 786.140625 817.839844 786.367188 817.449219 786.140625 C 817.839844 785.945312 818.164062 785.585938 818.421875 785.164062 C 817.804688 785.035156 817.15625 785.847656 816.765625 785.359375 C 816.246094 785.230469 815.855469 785.359375 815.789062 785.75 L 815.789062 785.816406 L 815.789062 785.75 C 815.757812 785.621094 815.464844 785.523438 815.722656 785.359375 C 815.332031 785.359375 815.074219 785.394531 814.847656 785.585938 C 814.910156 785.585938 815.039062 785.652344 815.105469 785.621094 C 814.910156 785.945312 814.519531 785.945312 814.617188 786.433594 C 814.8125 786.304688 814.847656 786.238281 815.074219 786.269531 C 814.976562 786.628906 814.292969 786.726562 814.128906 786.402344 C 813.933594 786.042969 814.585938 785.816406 814.261719 785.621094 L 813.253906 786.402344 C 813.480469 786.304688 813.738281 786.5 813.640625 786.792969 L 814.066406 786.5625 L 814.03125 786.921875 C 814.75 786.792969 815.269531 787.148438 816.015625 786.855469 L 815.722656 786.5 C 816.148438 786.464844 816.601562 785.976562 817.023438 786.402344 C 816.828125 786.53125 816.960938 786.726562 816.960938 786.921875 C 817.058594 786.855469 817.1875 786.726562 817.285156 786.757812 L 817.089844 787.375 C 817.285156 786.5625 818.292969 787.082031 818.488281 786.953125 L 818.421875 787.082031 C 819.074219 787.34375 818.292969 786.726562 818.75 786.726562 C 819.140625 786.824219 818.878906 787.410156 819.238281 787.667969 C 819.886719 787.636719 821.023438 787.179688 821.773438 787.667969 C 822.359375 787.570312 823.007812 787.34375 823.5625 787.050781 C 824.082031 787.050781 823.53125 787.703125 824.082031 787.410156 C 824.015625 787.636719 824.113281 787.863281 824.148438 788.058594 C 824.210938 787.832031 825.125 788.09375 824.699219 787.539062 C 825.480469 787.667969 826.328125 787.703125 827.140625 787.605469 C 826.878906 787.636719 826.8125 788.027344 827.042969 788.222656 C 827.433594 787.832031 828.082031 787.605469 828.765625 787.734375 C 828.765625 787.3125 828.539062 787.34375 828.601562 786.921875 C 828.699219 786.855469 828.863281 786.660156 829.027344 786.695312 C 829.125 787.117188 829.089844 787.765625 829.710938 787.765625 C 829.546875 788.417969 828.667969 787.667969 828.960938 788.351562 C 828.699219 788.871094 827.59375 788.90625 827.335938 788.578125 C 826.78125 789.132812 827.757812 788.644531 827.660156 789.199219 C 828.148438 789.164062 828.375 788.871094 829.125 788.773438 C 829.125 788.480469 828.863281 788.449219 829.222656 788.222656 C 829.902344 787.636719 830.066406 788.644531 830.230469 788.675781 C 830.132812 788.742188 830 788.773438 829.902344 788.839844 C 830.359375 789.035156 830.523438 788.644531 830.976562 788.675781 C 831.109375 789.425781 830.230469 788.773438 830.035156 789.230469 L 830.390625 789.785156 C 831.109375 789.847656 830.585938 789.164062 831.335938 789.359375 L 831.238281 789.621094 L 831.691406 789.457031 C 831.691406 789.164062 831.59375 788.742188 831.207031 788.808594 C 831.464844 788.09375 831.5625 788.710938 832.214844 788.546875 C 832.410156 788.125 831.953125 788.578125 831.921875 788.191406 C 831.855469 787.800781 832.3125 787.800781 832.605469 787.734375 C 833.125 787.734375 832.863281 788.191406 833.089844 788.449219 C 832.992188 788.515625 832.570312 788.578125 832.636719 788.351562 C 831.984375 788.773438 832.929688 789.199219 832.472656 789.523438 C 832.960938 789.75 832.960938 789.296875 833.1875 789.132812 C 833.058594 789.066406 833.285156 788.710938 833.15625 788.578125 C 834.003906 787.441406 833.710938 789.394531 834.523438 789.199219 C 834.359375 788.480469 835.628906 788.191406 835.011719 787.410156 C 835.207031 787.277344 835.464844 787.117188 835.660156 787.179688 C 835.433594 787.667969 836.019531 787.570312 835.628906 788.027344 L 835.921875 788.027344 L 835.464844 788.613281 C 835.789062 788.9375 836.34375 789.296875 836.539062 789.523438 C 836.960938 789.296875 836.410156 789.066406 836.898438 788.9375 C 836.734375 789.199219 837.027344 789.394531 837.253906 789.394531 C 836.800781 789.199219 837.253906 788.710938 837.515625 788.578125 C 837.96875 788.578125 838.328125 789.035156 838.261719 789.132812 L 837.90625 789.492188 C 838.132812 789.296875 838.003906 789.75 838.296875 789.589844 C 838.394531 789.328125 838.589844 788.90625 838.71875 788.546875 C 839.011719 788.417969 839.207031 788.773438 839.304688 788.710938 L 838.847656 789.003906 C 839.433594 788.90625 838.976562 789.75 839.5625 789.554688 L 839.726562 789.164062 C 839.855469 789.230469 839.890625 789.394531 839.792969 789.554688 C 839.890625 789.296875 840.214844 789.328125 840.375 789.230469 L 840.410156 789.492188 C 840.667969 789.328125 840.996094 788.773438 841.289062 789.261719 C 841.058594 788.644531 840.996094 789.261719 840.539062 788.96875 C 840.277344 788.515625 840.960938 788.546875 841.058594 788.480469 C 841.027344 789.132812 841.710938 788.546875 842.003906 788.546875 C 842.164062 788.773438 842.328125 788.871094 842.457031 789.035156 L 842.589844 788.613281 C 842.71875 789.457031 843.207031 788.417969 843.53125 788.675781 C 843.367188 788.9375 843.367188 789.261719 843.628906 789.394531 C 843.304688 788.773438 844.148438 788.613281 844.050781 788.191406 C 844.667969 788.417969 843.921875 788.96875 844.085938 789.425781 C 844.378906 788.9375 844.765625 789.75 844.960938 789.132812 C 844.507812 788.9375 845.027344 788.742188 845.125 788.449219 C 845.679688 788.480469 845.027344 788.710938 845.417969 788.9375 C 845.644531 788.839844 845.972656 788.386719 845.582031 788.191406 C 845.90625 788.320312 846.261719 787.734375 846.652344 788.125 C 846.816406 788.515625 845.972656 788.289062 846.167969 788.578125 C 846.945312 788.613281 846.554688 787.636719 847.273438 787.507812 C 846.945312 787.3125 847.273438 786.597656 847.597656 786.367188 C 848.410156 786.53125 847.238281 786.597656 847.566406 787.082031 L 847.890625 787.019531 C 848.34375 787.703125 846.945312 788.125 847.371094 788.675781 L 847.726562 788.449219 C 847.660156 788.644531 847.53125 789.003906 847.695312 789.164062 C 847.792969 788.675781 848.507812 789.035156 848.574219 788.9375 C 848.636719 788.546875 848.28125 789.066406 848.34375 788.742188 C 848.703125 788.644531 848.867188 787.960938 849.449219 788.222656 C 849.125 788.515625 849.582031 788.773438 849.449219 789.003906 C 849.742188 789.164062 849.546875 788.515625 849.9375 788.742188 L 849.90625 788.96875 C 851.335938 789.035156 853.125 789.003906 854.394531 788.09375 C 854.425781 788.058594 854.460938 788.027344 854.492188 788.027344 C 855.03125 788.417969 857.078125 788.449219 860.210938 788.742188 C 858.847656 788.613281 860.210938 788.320312 860.894531 788.289062 L 862.394531 788.742188 C 864.164062 789.003906 866.621094 788.578125 868.257812 788.320312 C 868.527344 788.417969 868.664062 788.546875 868.664062 788.644531 C 870.300781 788.9375 870.300781 788.386719 870.984375 788.289062 L 872.074219 788.613281 L 872.347656 788.289062 C 873.980469 788.09375 876.164062 788.191406 875.890625 788.710938 C 876.574219 788.613281 877.117188 788.515625 876.300781 788.351562 C 877.9375 788.644531 882.300781 788.644531 885.164062 788.480469 C 883.796875 788.351562 883.933594 788.191406 883.796875 787.863281 C 885.296875 787.3125 885.433594 787.960938 886.660156 787.636719 C 886.660156 787.832031 888.023438 788.058594 886.660156 788.191406 C 890.480469 788.90625 895.933594 788.320312 900.839844 788.480469 C 901.796875 788.386719 901.523438 788.320312 901.933594 788.15625 C 905.066406 788.710938 908.75 788.125 912.019531 788.386719 C 911.339844 788.15625 912.292969 787.507812 914.203125 787.472656 C 916.246094 787.019531 915.019531 788.125 916.792969 788.386719 C 917.746094 788.15625 919.382812 788.125 920.066406 788.15625 L 920.066406 788.222656 C 921.15625 787.960938 922.929688 787.832031 924.292969 788.058594 L 924.019531 788.09375 C 925.109375 788.125 926.335938 788.417969 927.425781 788.386719 C 927.972656 787.960938 930.699219 788.222656 931.382812 787.832031 C 931.519531 787.863281 931.382812 787.898438 931.652344 787.996094 L 931.789062 787.636719 L 933.972656 787.832031 C 933.425781 787.960938 933.425781 788.125 932.746094 788.222656 C 935.199219 788.480469 933.5625 787.898438 934.789062 787.703125 C 936.425781 787.441406 936.425781 787.800781 937.109375 787.960938 C 936.425781 788.15625 935.878906 787.863281 935.472656 787.929688 C 934.515625 788.222656 936.425781 788.058594 936.5625 788.253906 C 936.972656 788.253906 937.109375 787.832031 938.335938 787.898438 C 939.425781 787.929688 941.878906 787.832031 941.605469 788.222656 C 942.5625 788.027344 943.515625 788.058594 944.199219 787.863281 C 943.378906 787.800781 941.742188 787.703125 941.605469 787.441406 C 942.425781 787.375 943.925781 787.277344 944.199219 787.441406 L 943.515625 787.539062 C 944.199219 787.441406 946.378906 787.570312 945.289062 787.179688 L 946.925781 787.703125 C 947.46875 787.410156 949.105469 787.410156 950.46875 787.34375 C 950.46875 787.734375 949.515625 788.191406 951.96875 788.289062 L 954.148438 787.863281 C 955.242188 787.832031 955.511719 787.929688 955.378906 788.15625 C 959.195312 788.386719 959.332031 787.050781 962.332031 787.410156 C 961.101562 787.898438 962.058594 787.929688 963.421875 788.058594 C 963.421875 787.996094 963.558594 787.832031 964.101562 787.800781 C 963.695312 787.570312 963.285156 788.125 962.195312 787.800781 C 961.921875 787.507812 963.421875 787.605469 964.101562 787.507812 C 966.828125 788.546875 973.101562 787.765625 977.464844 788.253906 C 977.191406 787.667969 979.371094 788.09375 980.328125 787.863281 C 980.054688 788.480469 982.78125 787.765625 984.007812 788.125 L 983.464844 787.636719 C 986.191406 787.996094 987.824219 786.726562 989.460938 787.441406 C 990.960938 787.636719 988.917969 787.863281 988.371094 787.960938 C 990.417969 788.613281 993.960938 787.441406 995.597656 788.15625 C 995.734375 787.929688 995.1875 787.539062 996.960938 787.3125 C 998.460938 787.570312 1001.324219 787.898438 1001.050781 787.996094 C 1002.277344 787.863281 1002.550781 787.703125 1003.914062 787.898438 C 1003.777344 788.058594 1003.230469 788.058594 1002.824219 788.15625 C 1004.867188 788.320312 1006.640625 788.058594 1008.414062 787.832031 C 1009.503906 788.289062 1013.183594 788.058594 1015.640625 788.320312 C 1017.003906 787.765625 1019.457031 788.546875 1019.730469 787.832031 C 1019.730469 787.898438 1020.003906 787.996094 1020.136719 788.058594 C 1021.09375 787.863281 1021.773438 787.375 1022.863281 787.34375 L 1022.457031 787.832031 C 1022.183594 788.386719 1025.183594 788.027344 1025.863281 788.191406 C 1025.183594 787.863281 1027.226562 788.222656 1027.363281 787.898438 L 1028.726562 787.734375 C 1030.910156 787.605469 1029 787.507812 1031.589844 787.441406 C 1033.089844 787.410156 1032.136719 787.996094 1031.589844 787.929688 C 1032.816406 788.191406 1034.179688 788.027344 1035.410156 787.929688 C 1034.863281 787.929688 1034.726562 787.898438 1035.273438 787.800781 C 1035.273438 787.863281 1035.410156 787.898438 1035.542969 787.929688 C 1036.089844 787.898438 1036.5 787.863281 1037.042969 787.863281 L 1037.042969 787.898438 C 1037.726562 787.863281 1038.40625 787.832031 1038.953125 787.800781 C 1039.363281 787.765625 1039.636719 787.734375 1039.90625 787.734375 C 1040.726562 787.703125 1041 787.703125 1040.179688 787.800781 C 1040.042969 787.765625 1040.042969 787.734375 1039.90625 787.734375 C 1039.636719 787.734375 1039.363281 787.765625 1038.953125 787.800781 C 1038.40625 787.863281 1037.863281 787.996094 1037.453125 788.027344 C 1037.863281 788.027344 1038.273438 788.058594 1038.542969 788.125 L 1038.136719 788.480469 C 1039.089844 788.515625 1041.542969 788.09375 1041.542969 787.929688 C 1045.089844 788.253906 1051.085938 787.996094 1053.542969 787.765625 C 1053.679688 787.734375 1053.949219 787.703125 1054.222656 787.703125 C 1054.085938 787.734375 1053.8125 787.734375 1053.542969 787.765625 C 1053.132812 787.863281 1052.996094 787.960938 1053.542969 787.832031 C 1054.769531 787.765625 1056.132812 787.441406 1056.269531 787.667969 C 1057.496094 787.507812 1057.359375 787.929688 1059.269531 787.960938 C 1059.269531 788.027344 1059.402344 787.765625 1059.269531 787.667969 C 1059.132812 787.667969 1059.132812 787.636719 1058.996094 787.636719 C 1059.132812 787.636719 1059.269531 787.636719 1059.269531 787.667969 C 1062.402344 788.15625 1066.222656 787.3125 1069.902344 787.636719 L 1070.039062 787.636719 L 1069.902344 787.636719 C 1069.628906 787.667969 1069.21875 787.863281 1068.8125 787.996094 C 1071.675781 787.800781 1074.402344 787.667969 1076.992188 787.214844 C 1076.71875 787.375 1076.855469 787.539062 1076.175781 787.636719 C 1078.21875 787.636719 1080.535156 787.539062 1081.492188 787.179688 C 1080.128906 787.019531 1081.355469 787.375 1080.535156 787.375 C 1079.039062 787.050781 1081.628906 786.695312 1082.992188 786.792969 L 1082.992188 786.855469 C 1085.035156 786.855469 1085.035156 786.628906 1087.082031 786.628906 C 1088.308594 786.824219 1085.992188 786.726562 1086.535156 786.953125 C 1086.945312 787.539062 1091.035156 787.34375 1091.445312 787.410156 C 1091.988281 787.277344 1092.671875 787.179688 1092.535156 787.019531 C 1094.035156 786.855469 1093.214844 787.375 1094.308594 787.34375 L 1098.535156 786.238281 C 1098.535156 786.207031 1098.671875 786.171875 1098.804688 786.171875 L 1098.535156 786.238281 C 1098.398438 786.402344 1099.898438 786.726562 1098.671875 786.953125 C 1101.941406 786.890625 1103.714844 786.171875 1105.757812 785.816406 C 1106.714844 785.914062 1109.851562 785.683594 1110.941406 785.652344 C 1111.484375 785.976562 1109.984375 785.621094 1109.714844 785.878906 L 1111.351562 786.238281 C 1109.167969 786.304688 1111.621094 786.792969 1110.394531 787.019531 C 1112.167969 786.824219 1116.257812 787.050781 1118.847656 787.148438 C 1117.074219 786.464844 1122.394531 786.824219 1122.257812 786.207031 C 1125.257812 786.109375 1123.757812 786.695312 1124.984375 786.824219 C 1128.121094 786.597656 1131.117188 786.757812 1133.980469 786.695312 C 1133.980469 786.695312 1133.980469 786.757812 1133.847656 786.824219 C 1136.4375 786.628906 1140.800781 786.824219 1143.390625 786.269531 C 1143.253906 786.402344 1143.527344 786.5 1142.84375 786.597656 C 1145.707031 786.824219 1143.390625 785.816406 1146.660156 786.171875 L 1145.84375 786.464844 C 1147.886719 786.171875 1149.796875 786.726562 1152.117188 786.269531 C 1152.25 786.433594 1151.707031 786.5 1151.296875 786.5625 C 1153.480469 786.433594 1155.796875 786.5 1157.570312 786.074219 C 1157.839844 786.269531 1157.570312 786.433594 1156.75 786.5625 C 1158.796875 786.792969 1159.070312 786.011719 1160.976562 786.238281 C 1161.523438 786.269531 1162.613281 786.53125 1162.203125 786.53125 C 1163.160156 786.269531 1166.023438 786.269531 1167.113281 786.171875 C 1167.386719 786.367188 1168.203125 786.433594 1169.292969 786.628906 C 1178.566406 786.628906 1188.109375 786.695312 1197.378906 786.367188 C 1197.777344 786.335938 1198.101562 786.269531 1198.394531 786.207031 C 1198.816406 786.824219 1197.808594 786.597656 1198.070312 786.988281 C 1198.035156 786.464844 1198.492188 786.824219 1199.238281 786.660156 L 1199.273438 786.726562 C 1199.597656 786.628906 1199.792969 786.953125 1200.117188 786.792969 L 1200.117188 786.660156 C 1200.476562 786.335938 1200.929688 787.34375 1201.125 786.660156 L 1201.417969 787.019531 C 1201.777344 786.433594 1202.003906 787.214844 1202.460938 786.695312 L 1202.394531 786.792969 C 1203.011719 787.050781 1203.664062 786.140625 1203.890625 786.628906 C 1204.410156 786.53125 1204.996094 786.433594 1205.09375 785.945312 C 1205.222656 786.109375 1205.125 786.402344 1205.0625 786.5625 C 1207.011719 786.335938 1209.160156 786.433594 1210.882812 785.816406 C 1210.980469 785.914062 1210.851562 785.976562 1210.820312 786.109375 C 1211.890625 785.554688 1213.03125 786.695312 1213.8125 785.652344 L 1214.101562 785.230469 C 1214.363281 785.394531 1214.332031 785.71875 1214.527344 785.847656 C 1214.722656 785.554688 1215.5 785.78125 1215.632812 785.394531 C 1215.761719 785.554688 1215.597656 785.621094 1215.597656 785.75 C 1216.085938 785.847656 1216.671875 785.199219 1217.128906 785.328125 L 1216.964844 785.523438 C 1219.4375 786.269531 1222.59375 786.855469 1224.640625 785.878906 C 1225.195312 785.71875 1224.902344 786.433594 1225.128906 786.402344 C 1227.210938 785.621094 1229.714844 786.855469 1231.632812 785.621094 C 1233.128906 785.296875 1233.585938 783.929688 1233.585938 783.929688 C 1230.039062 784.480469 1226.851562 783.898438 1223.273438 783.179688 Z M 1223.273438 783.179688 " clip-rule="nonzero"/></clipPath></defs><rect x="-144" width="1728" fill="#ffffff" y="-80.999999" height="971.999992" fill-opacity="1"/><rect x="-144" width="1728" fill="#f0efec" y="-80.999999" height="971.999992" fill-opacity="1"/><g clip-path="url(#732bf9d43c)"><path fill="#866042" d="M -13.640625 764.640625 L 1453.359375 764.640625 L 1453.359375 827.640625 L -13.640625 827.640625 Z M -13.640625 764.640625 " fill-opacity="1" fill-rule="nonzero"/></g><path fill="#f0efec" d="M 707.652344 795.355469 L 707.632812 795.316406 C 707.292969 794.589844 707.605469 793.722656 708.335938 793.382812 C 709.0625 793.042969 709.929688 793.355469 710.273438 794.082031 C 710.609375 794.808594 710.308594 795.683594 709.582031 796.027344 C 709.378906 796.125 709.164062 796.171875 708.953125 796.171875 C 708.414062 796.171875 707.902344 795.875 707.652344 795.355469 Z M 707.371094 789.175781 C 706.578125 789.175781 705.929688 788.546875 705.917969 787.75 L 705.917969 787.703125 C 705.917969 786.898438 706.570312 786.25 707.371094 786.25 C 708.179688 786.25 708.828125 786.898438 708.828125 787.703125 C 708.828125 788.503906 708.183594 789.167969 707.382812 789.175781 Z M 707.453125 780.113281 L 707.46875 780.074219 C 707.800781 779.34375 708.664062 779.015625 709.398438 779.347656 C 710.132812 779.679688 710.457031 780.542969 710.125 781.273438 C 709.882812 781.816406 709.34375 782.140625 708.785156 782.140625 C 708.589844 782.140625 708.390625 782.101562 708.203125 782.019531 C 707.472656 781.691406 707.132812 780.847656 707.453125 780.113281 Z M 712.324219 773.875 C 712.949219 773.40625 713.839844 773.515625 714.332031 774.132812 C 714.835938 774.761719 714.730469 775.675781 714.105469 776.179688 C 714.078125 776.199219 714.042969 776.226562 714.011719 776.246094 C 713.761719 776.421875 713.472656 776.507812 713.183594 776.507812 C 712.722656 776.507812 712.269531 776.285156 711.988281 775.878906 C 711.535156 775.226562 711.6875 774.339844 712.324219 773.875 Z M 725.570312 774.140625 C 726.039062 773.492188 726.945312 773.347656 727.589844 773.816406 L 727.617188 773.832031 C 728.257812 774.3125 728.398438 775.21875 727.921875 775.863281 C 727.636719 776.253906 727.195312 776.460938 726.746094 776.460938 C 726.453125 776.460938 726.15625 776.371094 725.898438 776.1875 L 725.875 776.167969 C 725.234375 775.691406 725.097656 774.785156 725.570312 774.140625 Z M 730.574219 779.292969 C 731.304688 778.964844 732.164062 779.277344 732.496094 780.011719 L 732.503906 780.035156 C 732.835938 780.769531 732.507812 781.632812 731.773438 781.960938 C 731.582031 782.046875 731.378906 782.089844 731.179688 782.089844 C 730.621094 782.089844 730.089844 781.769531 729.847656 781.230469 C 729.519531 780.496094 729.839844 779.625 730.574219 779.292969 Z M 734.078125 787.664062 L 734.078125 787.671875 C 734.070312 788.472656 733.417969 789.121094 732.621094 789.121094 L 732.613281 789.121094 C 731.8125 789.117188 731.164062 788.46875 731.164062 787.667969 L 731.164062 787.621094 C 731.175781 786.824219 731.824219 786.1875 732.621094 786.1875 L 732.644531 786.1875 C 733.449219 786.199219 734.089844 786.859375 734.078125 787.664062 Z M 732.273438 795.265625 L 732.265625 795.285156 C 732.011719 795.804688 731.492188 796.109375 730.953125 796.109375 C 730.738281 796.109375 730.523438 796.0625 730.320312 795.960938 C 729.59375 795.613281 729.289062 794.742188 729.640625 794.015625 L 729.652344 793.992188 C 730 793.269531 730.875 792.96875 731.597656 793.316406 C 732.320312 793.667969 732.625 794.539062 732.273438 795.265625 Z M 705.546875 798.164062 L 705.546875 800.113281 L 715.046875 800.113281 L 715.046875 798.164062 L 715.042969 798.164062 L 715.046875 798.160156 C 711.960938 795.988281 710.042969 791.957031 710.042969 787.640625 C 710.042969 780.945312 714.507812 775.5 719.996094 775.5 C 725.484375 775.5 729.953125 780.945312 729.953125 787.640625 C 729.953125 791.734375 727.960938 795.839844 724.863281 798.164062 L 724.863281 800.113281 L 734.363281 800.113281 L 734.363281 798.164062 L 732.097656 798.164062 C 734.128906 795.105469 735.292969 791.398438 735.292969 787.640625 C 735.292969 778 728.433594 770.160156 719.996094 770.160156 C 711.5625 770.160156 704.703125 778 704.703125 787.640625 C 704.703125 791.527344 705.800781 795.1875 707.765625 798.164062 L 705.546875 798.164062 " fill-opacity="1" fill-rule="nonzero"/><path fill="#f0efec" d="M 712.011719 802.507812 L 712.042969 802.460938 L 715.089844 802.460938 L 715.089844 800.484375 L 705.589844 800.484375 L 705.589844 802.460938 L 711.949219 802.460938 C 711.96875 802.476562 711.992188 802.492188 712.011719 802.507812 " fill-opacity="1" fill-rule="nonzero"/><path fill="#f0efec" d="M 724.90625 802.460938 L 734.40625 802.460938 L 734.40625 800.484375 L 724.90625 800.484375 Z M 724.90625 802.460938 " fill-opacity="1" fill-rule="nonzero"/><g clip-path="url(#8fb383e2d3)"><g clip-path="url(#1938e912b6)"><path fill="#f0efec" d="M 205.40625 781.78125 L 629.113281 781.78125 L 629.113281 790.890625 L 205.40625 790.890625 Z M 205.40625 781.78125 " fill-opacity="1" fill-rule="nonzero"/></g></g><g clip-path="url(#fdf66271cc)"><g clip-path="url(#d696b62a3f)"><path fill="#f0efec" d="M 810.878906 781.78125 L 1234.585938 781.78125 L 1234.585938 790.890625 L 810.878906 790.890625 Z M 810.878906 781.78125 " fill-opacity="1" fill-rule="nonzero"/></g></g></svg>